<?xml version="1.0" encoding="UTF-8"?>
<svg width="128px" height="128px" viewBox="0 0 128 128" version="1.1" xmlns="http://www.w3.org/2000/svg" xmlns:xlink="http://www.w3.org/1999/xlink">
    <!-- Generator: Sketch 43.2 (39069) - http://www.bohemiancoding.com/sketch -->
    <title>Artboard</title>
    <desc>Created with Sketch.</desc>
    <defs>
        <polygon id="path-1" points="63.3334468 0.0544680851 0.0817021277 0.0544680851 0.0817021277 126.63966 126.585191 126.63966 126.585191 0.0544680851 63.3334468 0.0544680851"></polygon>
    </defs>
    <g id="Page-1" stroke="none" stroke-width="1" fill="none" fill-rule="evenodd">
        <g id="Artboard">
            <g id="cancel" transform="translate(1.000000, 0.000000)">
                <g id="Group-3">
                    <mask id="mask-2" fill="white">
                        <use xlink:href="#path-1"></use>
                    </mask>
                    <g id="Clip-2"></g>
                    <path d="M63.2919149,126.63966 C98.148766,126.63966 126.585191,98.3148936 126.585191,63.346383 C126.585191,28.379234 98.148766,0.0544680851 63.2919149,0.0544680851 C28.4309787,0.0544680851 0,28.4854468 0,63.346383 C0,98.203234 28.4309787,126.63966 63.2919149,126.63966 Z M63.2919149,8.98587234 C93.2493617,8.98587234 117.64834,33.3889362 117.64834,63.346383 C117.64834,93.3038298 93.2493617,117.702809 63.2919149,117.702809 C33.3344681,117.702809 8.93140426,93.3038298 8.93140426,63.346383 C8.93140426,33.3889362 33.3344681,8.98587234 63.2919149,8.98587234 Z" id="Fill-1" fill="#FFFFFF" mask="url(#mask-2)"></path>
                </g>
                <path d="M39.5424681,86.4422128 C40.4153191,87.309617 41.5046809,87.7453617 42.701617,87.7453617 C43.8985532,87.7453617 44.9892766,87.309617 45.8621277,86.4422128 L63.2919149,69.0124255 L80.7230638,86.4422128 C81.5959149,87.309617 82.6811915,87.7453617 83.8835745,87.7453617 C85.0791489,87.7453617 86.1698723,87.309617 87.0427234,86.4422128 C88.781617,84.6978723 88.781617,81.8628085 87.0427234,80.1239149 L69.6115745,62.692766 L87.0427234,45.261617 C88.781617,43.5227234 88.781617,40.6876596 87.0427234,38.9433191 C85.298383,37.2030638 82.4633191,37.2030638 80.7230638,38.9433191 L63.2919149,56.3731064 L45.8621277,38.9433191 C44.1164255,37.2030638 41.2868085,37.2030638 39.5424681,38.9433191 C37.8035745,40.6876596 37.8035745,43.5227234 39.5424681,45.261617 L56.973617,62.692766 L39.5424681,80.1239149 C37.8035745,81.8628085 37.8035745,84.6978723 39.5424681,86.4422128 Z" id="Fill-4" fill="#FFFFFF"></path>
            </g>
        </g>
    </g>
</svg>