<?xml version="1.0" encoding="UTF-8"?>
<svg width="128px" height="128px" viewBox="0 0 128 128" version="1.1" xmlns="http://www.w3.org/2000/svg" xmlns:xlink="http://www.w3.org/1999/xlink">
    <!-- Generator: Sketch 43.2 (39069) - http://www.bohemiancoding.com/sketch -->
    <title>Artboard</title>
    <desc>Created with Sketch.</desc>
    <defs></defs>
    <g id="Page-1" stroke="none" stroke-width="1" fill="none" fill-rule="evenodd">
        <g id="Artboard" stroke-width="0.25" stroke="#828282" fill="#828282" fill-rule="nonzero">
            <g id="logout">
                <path d="M126.341856,66.6775776 L126.397033,66.62514 C126.480489,66.5209161 126.562565,66.4433995 126.617742,66.3391755 C126.646021,66.3124682 126.646021,66.2867379 126.673264,66.2600305 C126.728442,66.1558066 126.811898,66.0515827 126.865696,65.9470331 C126.865696,65.9216285 126.893974,65.8949211 126.893974,65.8949211 C126.949152,65.792 127.004329,65.6877761 127.059851,65.5565191 C127.059851,65.5311145 127.059851,65.5311145 127.08675,65.5044071 C127.141927,65.4001832 127.170205,65.270229 127.225383,65.1406005 C127.225383,65.1138931 127.225383,65.0884885 127.252282,65.0884885 C127.28056,64.9572316 127.335738,64.8530076 127.335738,64.7233791 C127.335738,64.6709415 127.335738,64.6442341 127.362982,64.5921222 C127.39126,64.489201 127.39126,64.3849771 127.418159,64.2804274 C127.446438,64.1240916 127.446438,63.9928346 127.446438,63.8378015 C127.446438,63.68114 127.446438,63.5502086 127.418159,63.3938728 C127.418159,63.2893232 127.39126,63.1864021 127.362982,63.0821781 C127.362982,63.0297404 127.362982,63.0030331 127.335738,62.9509211 C127.307459,62.8212926 127.28056,62.716743 127.252282,62.5858117 C127.252282,62.5604071 127.252282,62.5350025 127.225383,62.5350025 C127.197105,62.4040713 127.141927,62.2995216 127.08675,62.1698931 C127.08675,62.1431858 127.08675,62.1431858 127.059851,62.1177812 C127.004329,62.0132316 126.949152,61.8836031 126.893974,61.7793791 C126.893974,61.7526718 126.865696,61.7269415 126.865696,61.7269415 C126.811898,61.6227176 126.75672,61.5184937 126.673264,61.413944 C126.646021,61.3872366 126.646021,61.361832 126.617742,61.3351247 C126.535666,61.2322036 126.480489,61.1279797 126.397033,61.0488346 L126.341856,60.9967226 C126.231156,60.8924987 126.149079,60.7625445 126.011826,60.6583206 L98.7259272,34.9153385 C96.87783,33.1699135 93.869629,33.1699135 92.0215319,34.9153385 C90.1734355,36.6607634 90.1734355,39.5005394 92.0215319,41.2462901 L111.223256,59.3809262 L34.8853669,59.3809262 C32.2654764,59.3809262 30.1411477,61.3872366 30.1411477,63.8378015 C30.1411477,66.3124682 32.2654764,68.3187786 34.8853669,68.3187786 L111.251535,68.3187786 L92.1874093,86.323786 C90.3389673,88.069211 90.3389673,90.908987 92.1874093,92.6544121 C93.0978357,93.5145849 94.311738,93.957211 95.5252947,93.957211 C96.739197,93.957211 97.9527544,93.5145849 98.8635256,92.6544121 L125.983547,67.042687 C126.122181,66.8860255 126.231156,66.7818015 126.341856,66.6775776 Z" id="Fill-1"></path>
                <path d="M25.6850651,8.96358272 L60.9982362,8.96358272 C63.6195061,8.96358272 65.7441796,6.95727226 65.7441796,4.50833588 C65.7441796,2.03236641 63.6195061,0.0260559797 60.9982362,0.0260559797 L25.6850651,0.0260559797 C11.5324149,0.0260559797 0,10.9177812 0,24.284173 L0,103.416509 C0,116.782901 11.5324149,127.674952 25.6850651,127.674952 L60.4188738,127.674952 C63.0404886,127.674952 65.1648172,125.668641 65.1648172,123.218076 C65.1648172,120.743735 63.0404886,118.737099 60.4188738,118.737099 L25.6850651,118.737099 C16.7459866,118.737099 9.46326355,111.857995 9.46326355,103.416509 L9.46326355,24.284173 C9.49050744,15.8159797 16.7459866,8.96358272 25.6850651,8.96358272 Z" id="Fill-3"></path>
            </g>
        </g>
    </g>
</svg>