<?xml version="1.0" encoding="UTF-8"?>
<svg width="245px" height="76px" viewBox="0 0 245 76" version="1.1" xmlns="http://www.w3.org/2000/svg" xmlns:xlink="http://www.w3.org/1999/xlink">
    <!-- Generator: Sketch 41.2 (35397) - http://www.bohemiancoding.com/sketch -->
    <title>Group 2</title>
    <desc>Created with Sketch.</desc>
    <defs></defs>
    <g id="Page-1" stroke="none" stroke-width="1" fill="none" fill-rule="evenodd">
        <g id="Group-2" fill="#828282">
            <g id="UP-logo" transform="translate(0.000000, 26.000000)">
                <g id="Group">
                    <path d="M0.5,0 L0.5,50 L122.5,50 L122.5,0 L0.5,0 Z M29.5,26.2 C29.5,27.5 29.1,28.7 28.7,29.8 C28.3,30.9 27.6,31.8 26.8,32.6 C26,33.4 25.1,34 24,34.4 C22.9,34.8 21.6,35.1 20.2,35.1 C18.8,35.1 17.5,34.9 16.4,34.4 C15.3,34 14.3,33.3 13.6,32.5 C12.8,31.7 12.4,30.8 12,29.7 C11.6,28.6 11.5,27.4 11.5,26.1 L11.5,13 L15.5,13 L15.5,26.1 C15.5,26.9 15.5,27.7 15.7,28.3 C15.9,29 16.2,29.5 16.6,30 C17,30.5 17.5,30.8 18.1,31.1 C18.7,31.4 19.4,31.5 20.2,31.5 C21,31.5 21.7,31.4 22.3,31.1 C22.9,30.8 23.4,30.5 23.9,30 C24.3,29.5 24.8,29 25.1,28.3 C25.3,27.6 25.6,26.9 25.6,26.1 L25.6,13 L29.6,13 L29.6,26.2 L29.5,26.2 Z M46.7,35 C46.3,35 46.1,34.9 45.8,34.7 C45.6,34.6 45.3,34.3 45.2,34.1 L40.6,27.1 C40.4,26.8 40.2,26.5 40,26.3 C39.8,26.1 39.6,26 39.2,26 L37.5,26 L37.5,35 L33.5,35 L33.5,13 L40,13 C41.5,13 42.7,13.2 43.8,13.5 C44.9,13.8 45.7,14.3 46.4,14.8 C47.1,15.4 47.6,16 47.9,16.8 C48.2,17.6 48.4,18.4 48.4,19.3 C48.4,20 48.3,20.7 48.1,21.4 C47.9,22 47.6,22.6 47.2,23.2 C46.8,23.7 46.3,24.2 45.7,24.6 C45.1,25 44.4,25.3 43.7,25.6 C44.2,25.9 44.7,26.4 45,26.9 L50.4,35 L46.7,35 Z M68.5,31 C68.2,31.8 67.6,32.5 67,33 C66.3,33.6 65.5,34.1 64.5,34.4 C63.5,34.7 62.4,34.9 61.1,34.9 L52.5,34.9 L52.5,13 L60.4,13 C61.8,13 63,13.2 64,13.5 C65,13.8 65.8,14.2 66.5,14.7 C67.1,15.2 67.6,15.8 67.9,16.5 C68.2,17.2 68.4,18 68.4,18.9 C68.4,19.4 68.3,19.9 68.2,20.4 C68,20.9 67.8,21.3 67.5,21.7 C67.2,22.1 66.8,22.5 66.3,22.8 C65.8,23.1 65.2,23.4 64.6,23.6 C67.6,24.3 69.1,25.9 69.1,28.4 C69,29.4 68.8,30.3 68.5,31 Z M88.4,35 C88.1,35 87.8,34.8 87.5,34.7 C87.3,34.5 87.1,34.5 87,34.3 L85.4,30 L76.4,30 L74.8,34.2 C74.7,34.4 74.6,34.6 74.3,34.8 C74.1,35 73.8,35 73.5,35 L70.4,35 L78.9,13 L83,13 L91.5,35 L88.4,35 Z M112.5,35 L110,35 C109.7,35 109.4,34.9 109.2,34.8 C109,34.7 108.8,34.5 108.6,34.2 L97.2,19.7 C97.2,20 97.3,20.3 97.4,20.6 C97.5,20.9 97.5,21.2 97.5,21.5 L97.5,35 L93.5,35 L93.5,13 L95.9,13 C96.1,13 96.2,13.1 96.3,13.1 C96.4,13.1 96.5,13.2 96.6,13.2 C96.7,13.2 96.8,13.3 96.9,13.4 C97,13.5 97.1,13.6 97.2,13.7 L108.6,28.2 C108.6,27.8 108.5,27.5 108.5,27.2 L108.5,26.3 L108.5,13 L112.5,13 L112.5,35 L112.5,35 Z" id="Shape"></path>
                    <path d="M63.3,22 C64,21.5 64.4,20.6 64.4,19.5 C64.4,18.4 64.1,17.4 63.4,16.9 C62.8,16.4 61.8,16 60.4,16 L56.5,16 L56.5,23 L60.2,23 C61.6,23 62.6,22.5 63.3,22 Z" id="Shape"></path>
                    <path d="M81.4,18.3 C81.3,17.9 81.1,17.4 81,16.9 C80.9,17.4 80.7,17.9 80.6,18.3 C80.5,18.7 80.3,19.3 80.2,19.6 L77.5,27 L84.4,27 L81.8,19.6 C81.6,19.3 81.5,18.8 81.4,18.3 Z" id="Shape"></path>
                    <path d="M64.1,26.2 C63.8,25.9 63.4,25.6 62.9,25.4 C62.4,25.2 61.7,25 61,25 L56.5,25 L56.5,32 L61.1,32 C61.9,32 62.5,31.8 63,31.6 C63.5,31.4 63.9,31.1 64.2,30.8 C64.5,30.5 64.7,30.1 64.9,29.7 C65,29.3 65.1,28.9 65.1,28.4 C65.1,27.9 65,27.5 64.9,27.1 C64.6,26.8 64.4,26.4 64.1,26.2 Z" id="Shape"></path>
                    <path d="M44.4,19.7 C44.4,18.6 44,17.6 43.3,17 C42.6,16.4 41.5,16 40,16 L37.5,16 L37.5,23 L40,23 C40.8,23 41.4,23.2 42,23 C42.6,22.8 43,22.7 43.4,22.3 C43.8,22 44,21.6 44.2,21.2 C44.3,20.7 44.4,20.3 44.4,19.7 Z" id="Shape"></path>
                </g>
                <path d="M121.5,0 L121.5,50 L244.5,50 L244.5,0 L121.5,0 Z M240.5,46 L125.5,46 L125.5,4 L240.5,4 L240.5,46 Z" id="Shape"></path>
                <g id="Piper" transform="translate(139.000000, 13.000000)">
                    <path d="M3.1,14 L3.1,22 L0.2,22 L0.2,0.5 L6.5,0.5 C7.9,0.5 9,0.7 10,1 C11,1.3 11.8,1.8 12.5,2.3 C13.2,2.9 13.7,3.6 14,4.4 C14.3,5.2 14.5,6.1 14.5,7.1 C14.5,8.1 14.3,9 14,9.8 C13.6,10.6 13.1,11.3 12.5,11.9 C11.8,12.5 11,13 10,13.3 C9,13.6 7.9,13.8 6.6,13.8 L3.1,13.8 L3.1,14 Z M3.1,11.6 L6.6,11.6 C7.4,11.6 8.2,11.5 8.8,11.3 C9.4,11.1 10,10.8 10.4,10.4 C10.8,10 11.2,9.5 11.4,9 C11.6,8.5 11.7,7.8 11.7,7.2 C11.7,5.8 11.3,4.8 10.4,4 C9.6,3.2 8.3,2.8 6.6,2.8 L3.1,2.8 L3.1,11.6 L3.1,11.6 Z" id="Shape"></path>
                    <polygon id="Shape" points="24.7 22 21.8 22 21.8 0.5 24.7 0.5"></polygon>
                    <path d="M34.7,14 L34.7,22 L31.8,22 L31.8,0.5 L38.1,0.5 C39.5,0.5 40.6,0.7 41.6,1 C42.6,1.3 43.4,1.8 44.1,2.3 C44.8,2.9 45.3,3.6 45.6,4.4 C45.9,5.2 46.1,6.1 46.1,7.1 C46.1,8.1 45.9,9 45.6,9.8 C45.2,10.6 44.7,11.3 44.1,11.9 C43.4,12.5 42.6,13 41.6,13.3 C40.6,13.6 39.5,13.8 38.2,13.8 L34.7,13.8 L34.7,14 Z M34.7,11.6 L38.2,11.6 C39,11.6 39.8,11.5 40.4,11.3 C41,11.1 41.6,10.8 42,10.4 C42.4,10 42.8,9.5 43,9 C43.2,8.5 43.3,7.8 43.3,7.2 C43.3,5.8 42.9,4.8 42,4 C41.2,3.2 39.9,2.8 38.2,2.8 L34.7,2.8 L34.7,11.6 L34.7,11.6 Z" id="Shape"></path>
                    <polygon id="Shape" points="67.1 0.5 67.1 2.9 56.8 2.9 56.8 10 65.2 10 65.2 12.3 56.8 12.3 56.8 19.6 67.1 19.6 67.1 22 53.9 22 53.9 0.5"></polygon>
                    <path d="M77.4,13 L77.4,22 L74.5,22 L74.5,0.5 L80.6,0.5 C82,0.5 83.1,0.6 84.1,0.9 C85.1,1.2 85.9,1.6 86.6,2.1 C87.2,2.6 87.7,3.2 88,4 C88.3,4.7 88.5,5.6 88.5,6.5 C88.5,7.3 88.4,8 88.1,8.6 C87.9,9.3 87.5,9.9 87.1,10.4 C86.6,10.9 86.1,11.4 85.4,11.7 C84.7,12.1 84,12.4 83.2,12.5 C83.6,12.7 83.9,13 84.2,13.4 L90.5,21.9 L87.9,21.9 C87.4,21.9 87,21.7 86.7,21.3 L81.1,13.6 C80.9,13.4 80.7,13.2 80.5,13.1 C80.3,13 80,13 79.6,13 L77.4,13 Z M77.4,10.9 L80.4,10.9 C81.3,10.9 82,10.8 82.6,10.6 C83.2,10.4 83.8,10.1 84.2,9.7 C84.6,9.3 85,8.9 85.2,8.4 C85.4,7.9 85.5,7.3 85.5,6.7 C85.5,5.4 85.1,4.5 84.2,3.8 C83.4,3.2 82.1,2.8 80.4,2.8 L77.2,2.8 L77.2,10.9 L77.4,10.9 Z" id="Shape"></path>
                </g>
            </g>
            <path d="M12.56,0.84 L17.18,0.84 C17.9933374,0.84 18.7266634,0.9133326 19.38,1.06 C20.0333366,1.2066674 20.593331,1.446665 21.06,1.78 C21.526669,2.113335 21.8866654,2.5399974 22.14,3.06 C22.3933346,3.5800026 22.52,4.206663 22.52,4.94 C22.52,5.7266706 22.3733348,6.386664 22.08,6.92 C21.7866652,7.453336 21.3900025,7.8833317 20.89,8.21 C20.3899975,8.5366683 19.80667,8.7733326 19.14,8.92 C18.47333,9.0666674 17.7666704,9.14 17.02,9.14 L15.08,9.14 L15.08,15 L12.56,15 L12.56,0.84 Z M16.84,7.02 C17.2533354,7.02 17.6466648,6.9900003 18.02,6.93 C18.3933352,6.8699997 18.7266652,6.7633341 19.02,6.61 C19.3133348,6.4566659 19.5466658,6.246668 19.72,5.98 C19.8933342,5.713332 19.98,5.3666688 19.98,4.94 C19.98,4.5266646 19.8933342,4.1900013 19.72,3.93 C19.5466658,3.6699987 19.3166681,3.4666674 19.03,3.32 C18.7433319,3.1733326 18.4166685,3.0766669 18.05,3.03 C17.6833315,2.9833331 17.3066686,2.96 16.92,2.96 L15.08,2.96 L15.08,7.02 L16.84,7.02 Z M34.08,7.88 C34.08,6.746661 34.2699981,5.7233379 34.65,4.81 C35.0300019,3.8966621 35.5566633,3.1200032 36.23,2.48 C36.9033367,1.8399968 37.7033287,1.3466684 38.63,1 C39.5566713,0.6533316 40.5666612,0.48 41.66,0.48 C42.7666722,0.48 43.786662,0.6533316 44.72,1 C45.653338,1.3466684 46.4599966,1.8399968 47.14,2.48 C47.8200034,3.1200032 48.3499981,3.8966621 48.73,4.81 C49.1100019,5.7233379 49.3,6.746661 49.3,7.88 C49.3,8.9866722 49.1100019,9.9966621 48.73,10.91 C48.3499981,11.8233379 47.8200034,12.6099967 47.14,13.27 C46.4599966,13.9300033 45.653338,14.4433315 44.72,14.81 C43.786662,15.1766685 42.7666722,15.36 41.66,15.36 C40.5666612,15.36 39.5566713,15.1766685 38.63,14.81 C37.7033287,14.4433315 36.9033367,13.9300033 36.23,13.27 C35.5566633,12.6099967 35.0300019,11.8233379 34.65,10.91 C34.2699981,9.9966621 34.08,8.9866722 34.08,7.88 Z M36.82,7.88 C36.82,8.6400038 36.9366655,9.3366635 37.17,9.97 C37.4033345,10.6033365 37.7366645,11.153331 38.17,11.62 C38.6033355,12.086669 39.1166637,12.4499987 39.71,12.71 C40.3033363,12.9700013 40.9599964,13.1 41.68,13.1 C42.4000036,13.1 43.059997,12.9700013 43.66,12.71 C44.260003,12.4499987 44.7766645,12.086669 45.21,11.62 C45.6433355,11.153331 45.9766655,10.6033365 46.21,9.97 C46.4433345,9.3366635 46.56,8.6400038 46.56,7.88 C46.56,7.146663 46.4433345,6.4666698 46.21,5.84 C45.9766655,5.2133302 45.6466688,4.666669 45.22,4.2 C44.7933312,3.733331 44.280003,3.366668 43.68,3.1 C43.079997,2.833332 42.413337,2.7 41.68,2.7 C40.946663,2.7 40.2833363,2.833332 39.69,3.1 C39.0966637,3.366668 38.5866688,3.733331 38.16,4.2 C37.7333312,4.666669 37.4033345,5.2133302 37.17,5.84 C36.9366655,6.4666698 36.82,7.146663 36.82,7.88 Z M60.3,0.84 L63.06,0.84 L65.8,11.24 L65.84,11.24 L68.96,0.84 L71.56,0.84 L74.62,11.24 L74.66,11.24 L77.46,0.84 L80.14,0.84 L76,15 L73.56,15 L70.24,4.38 L70.2,4.38 L66.88,15 L64.44,15 L60.3,0.84 Z M91.82,0.84 L101.2,0.84 L101.2,3.04 L94.34,3.04 L94.34,6.64 L100.84,6.64 L100.84,8.76 L94.34,8.76 L94.34,12.76 L101.56,12.76 L101.56,15 L91.82,15 L91.82,0.84 Z M114.02,0.84 L118.94,0.84 C119.60667,0.84 120.25333,0.9099993 120.88,1.05 C121.50667,1.1900007 122.063331,1.4199984 122.55,1.74 C123.036669,2.0600016 123.426665,2.4799974 123.72,3 C124.013335,3.5200026 124.16,4.1533296 124.16,4.9 C124.16,5.9266718 123.870003,6.7633301 123.29,7.41 C122.709997,8.0566699 121.920005,8.4933322 120.92,8.72 L124.7,15 L121.66,15 L118.38,9 L116.54,9 L116.54,15 L114.02,15 L114.02,0.84 Z M118.6,6.94 C118.960002,6.94 119.319998,6.9133336 119.68,6.86 C120.040002,6.8066664 120.363332,6.7066674 120.65,6.56 C120.936668,6.4133326 121.173332,6.2033347 121.36,5.93 C121.546668,5.6566653 121.64,5.3066688 121.64,4.88 C121.64,4.4933314 121.553334,4.1766679 121.38,3.93 C121.206666,3.6833321 120.986668,3.4866674 120.72,3.34 C120.453332,3.1933326 120.150002,3.0933336 119.81,3.04 C119.469998,2.9866664 119.140002,2.96 118.82,2.96 L116.54,2.96 L116.54,6.94 L118.6,6.94 Z M136.6,0.84 L145.98,0.84 L145.98,3.04 L139.12,3.04 L139.12,6.64 L145.62,6.64 L145.62,8.76 L139.12,8.76 L139.12,12.76 L146.34,12.76 L146.34,15 L136.6,15 L136.6,0.84 Z M158.8,0.84 L163.82,0.84 C164.740005,0.84 165.666662,0.9599988 166.6,1.2 C167.533338,1.4400012 168.37333,1.8366639 169.12,2.39 C169.86667,2.9433361 170.473331,3.6699955 170.94,4.57 C171.406669,5.4700045 171.64,6.58666 171.64,7.92 C171.64,9.1600062 171.406669,10.2266622 170.94,11.12 C170.473331,12.0133378 169.86667,12.7466638 169.12,13.32 C168.37333,13.8933362 167.533338,14.3166653 166.6,14.59 C165.666662,14.8633347 164.740005,15 163.82,15 L158.8,15 L158.8,0.84 Z M163.42,12.8 C164.073337,12.8 164.726663,12.7233341 165.38,12.57 C166.033337,12.4166659 166.623331,12.1566685 167.15,11.79 C167.676669,11.4233315 168.106665,10.9266698 168.44,10.3 C168.773335,9.6733302 168.94,8.8800048 168.94,7.92 C168.94,6.9066616 168.773335,6.0800032 168.44,5.44 C168.106665,4.7999968 167.676669,4.3000018 167.15,3.94 C166.623331,3.5799982 166.033337,3.333334 165.38,3.2 C164.726663,3.066666 164.073337,3 163.42,3 L161.32,3 L161.32,12.8 L163.42,12.8 Z M199.08,0.84 L204.6,0.84 C205.133336,0.84 205.659997,0.9033327 206.18,1.03 C206.700003,1.1566673 207.163331,1.3633319 207.57,1.65 C207.976669,1.9366681 208.306665,2.3066644 208.56,2.76 C208.813335,3.2133356 208.94,3.7599968 208.94,4.4 C208.94,5.200004 208.713336,5.8599974 208.26,6.38 C207.806664,6.9000026 207.213337,7.2733322 206.48,7.5 L206.48,7.54 C207.373338,7.6600006 208.106664,8.0066638 208.68,8.58 C209.253336,9.1533362 209.54,9.9199952 209.54,10.88 C209.54,11.6533372 209.386668,12.3033307 209.08,12.83 C208.773332,13.3566693 208.370002,13.7799984 207.87,14.1 C207.369997,14.4200016 206.79667,14.6499993 206.15,14.79 C205.50333,14.9300007 204.84667,15 204.18,15 L199.08,15 L199.08,0.84 Z M201.6,6.6 L203.84,6.6 C204.680004,6.6 205.319998,6.433335 205.76,6.1 C206.200002,5.766665 206.42,5.2933364 206.42,4.68 C206.42,4.0399968 206.193336,3.586668 205.74,3.32 C205.286664,3.053332 204.580005,2.92 203.62,2.92 L201.6,2.92 L201.6,6.6 Z M201.6,12.88 L203.86,12.88 C204.180002,12.88 204.526665,12.8566669 204.9,12.81 C205.273335,12.7633331 205.616665,12.6666674 205.93,12.52 C206.243335,12.3733326 206.503332,12.1600014 206.71,11.88 C206.916668,11.5999986 207.02,11.226669 207.02,10.76 C207.02,10.0133296 206.766669,9.4933348 206.26,9.2 C205.753331,8.9066652 204.986672,8.76 203.96,8.76 L201.6,8.76 L201.6,12.88 Z M225.44,8.86 L220.12,0.84 L223.2,0.84 L226.76,6.8 L230.36,0.84 L233.28,0.84 L227.96,8.86 L227.96,15 L225.44,15 L225.44,8.86 Z" id="POWERED-BY"></path>
        </g>
    </g>
</svg>