<?xml version="1.0" encoding="UTF-8"?>
<svg width="128px" height="128px" viewBox="0 0 128 128" version="1.1" xmlns="http://www.w3.org/2000/svg" xmlns:xlink="http://www.w3.org/1999/xlink">
    <!-- Generator: Sketch 43.2 (39069) - http://www.bohemiancoding.com/sketch -->
    <title>Artboard</title>
    <desc>Created with Sketch.</desc>
    <defs></defs>
    <g id="Page-1" stroke="none" stroke-width="1" fill="none" fill-rule="evenodd">
        <g id="Artboard" fill-rule="nonzero" fill="#828282">
            <g id="refer-n-earn" transform="translate(5.000000, 0.000000)">
                <path d="M94.3263521,79.6985252 C86.863506,79.6985252 80.1794767,83.1039155 75.7481039,88.4401534 L46.9072086,72.068085 C47.8043277,69.5429133 48.2965458,66.8304313 48.2965458,64.0031688 C48.2965458,61.175202 47.8043277,58.4606073 46.9072086,55.9375483 L75.7452869,39.5577345 C80.1766603,44.8967887 86.8613933,48.304996 94.3263521,48.304996 C107.639484,48.304996 118.471808,37.4670388 118.471808,24.1482732 C118.471808,10.8323239 107.639484,0 94.3263521,0 C81.0104035,0 70.1780795,10.8323239 70.1780795,24.1482732 C70.1780795,26.9762399 70.6702976,29.690834 71.5674167,32.2131888 L42.7293384,48.5937075 C38.2951486,43.2574696 31.6139363,39.8520792 24.1510895,39.8520792 C10.8351403,39.8520792 0,50.6844032 0,64.0003524 C0,77.3163011 10.8351403,88.148625 24.1510895,88.148625 C31.6139363,88.148625 38.2951486,84.7460517 42.7265214,79.4098137 L71.5674167,95.7839943 C70.6702976,98.309166 70.1780795,101.024465 70.1780795,103.851727 C70.1780795,117.16838 81.0104035,128 94.3263521,128 C107.639484,128 118.471808,117.165564 118.471808,103.851727 C118.471808,90.5329619 107.639484,79.6985252 94.3263521,79.6985252 Z M94.3263521,8.4500998 C102.979958,8.4500998 110.021709,15.4918499 110.021709,24.1482732 C110.021709,32.8075129 102.979958,39.8520792 94.3263521,39.8520792 C85.6699294,39.8520792 78.6281793,32.8075129 78.6281793,24.1482732 C78.6281793,15.4918499 85.6699294,8.4500998 94.3263521,8.4500998 Z M24.1539065,79.6985252 C15.4946662,79.6985252 8.4500998,72.6567751 8.4500998,64.0031688 C8.4500998,55.3467461 15.4946662,48.304996 24.1539065,48.304996 C32.8075129,48.304996 39.8492629,55.3467461 39.8492629,64.0031688 C39.8492629,72.6567751 32.8075129,79.6985252 24.1539065,79.6985252 Z M94.3263521,119.5499 C85.6699294,119.5499 78.6281793,112.508151 78.6281793,103.851727 C78.6281793,95.193192 85.6699294,88.148625 94.3263521,88.148625 C102.979958,88.148625 110.021709,95.193192 110.021709,103.851727 C110.021709,112.508151 102.979958,119.5499 94.3263521,119.5499 Z" id="share"></path>
            </g>
        </g>
    </g>
</svg>