<?xml version="1.0" encoding="UTF-8"?>
<svg width="128px" height="128px" viewBox="0 0 128 128" version="1.1" xmlns="http://www.w3.org/2000/svg" xmlns:xlink="http://www.w3.org/1999/xlink">
    <!-- Generator: Sketch 43.2 (39069) - http://www.bohemiancoding.com/sketch -->
    <title>Artboard</title>
    <desc>Created with Sketch.</desc>
    <defs></defs>
    <g id="Page-1" stroke="none" stroke-width="1" fill="none" fill-rule="evenodd">
        <g id="Artboard" fill-rule="nonzero" fill="#828282">
            <g id="Wallet" transform="translate(0.000000, 3.000000)">
                <path d="M121.17325,85.5412738 L91.8187496,85.5412738 C89.2777502,85.5412738 87.2107496,83.4440832 87.2107496,80.8659684 L87.2107496,62.5109807 C87.2107496,59.9331197 89.2777502,57.835675 91.8187496,57.835675 L121.17325,57.835675 L121.17325,85.5412738 Z M113.23725,114.978299 L14.76275,114.978299 C10.38675,114.978299 6.82674999,111.3663 6.82674999,106.926384 L6.82674999,36.4505654 C6.82674999,32.0106485 10.38675,28.3986503 14.76275,28.3986503 L113.23725,28.3986503 C117.61325,28.3986503 121.17325,32.0106485 121.17325,36.4505654 L121.17325,50.9094654 L91.8187496,50.9094654 C85.5135,50.9094654 80.3839998,56.1138882 80.3839998,62.5109807 L80.3839998,80.8659684 C80.3839998,87.2630611 85.5135,92.467737 91.8187496,92.467737 L121.17325,92.467737 L121.17325,106.926384 C121.17325,111.3663 117.61325,114.978299 113.23725,114.978299 Z M59.1594998,7.95255886 L64.9097497,13.7867984 L54.0405,21.3922868 C54.0044999,21.417652 53.9722499,21.4463146 53.9374999,21.4726944 L39.8379999,21.4726944 L59.1594998,7.95255886 Z M85.2714996,7.95255886 L98.5967498,21.4721871 L65.9505002,21.4721871 L85.2714996,7.95255886 Z M108.2515,21.4721871 L88.0885,1.014935 C86.9234997,-0.167081275 85.0937497,-0.335759564 83.7370002,0.612897276 L70.6239997,9.7882352 L61.9765001,1.0144277 C60.8112499,-0.167588578 58.9807502,-0.336520518 57.6249999,0.612389973 L27.929,21.3915259 C27.89275,21.4168911 14.76275,21.4719335 14.76275,21.4719335 C6.62249998,21.4721871 0,28.1916706 0,36.4505654 L0,106.926384 C0,115.185532 6.62249998,121.904762 14.76275,121.904762 L113.23725,121.904762 C121.3775,121.904762 128,115.185532 128,106.926384 L128,36.4505654 C128,28.1916706 121.3775,21.4721871 113.23725,21.4721871 L108.2515,21.4721871 Z" id="Fill-1" stroke="#828282" stroke-width="0.25"></path>
                <path d="M106.291475,66.252588 C108.790974,66.252588 110.824639,68.2815485 110.824639,70.775597 C110.824639,73.2693141 108.790974,75.2982747 106.291475,75.2982747 C103.791977,75.2982747 101.758313,73.2693141 101.758313,70.775597 C101.758313,68.2815485 103.791977,66.252588 106.291475,66.252588 Z" id="Fill-4"></path>
                <path d="M33.0704207,45.2404075 C31.0407025,45.2404075 29.3956106,46.6774211 29.3956106,48.4501218 L29.3956106,92.7420164 C29.3956106,94.514482 31.0407025,95.9514956 33.0704207,95.9514956 C35.1001389,95.9514956 36.7452308,94.514482 36.7452308,92.7420164 L36.7452308,48.4501218 C36.7452308,46.6774211 35.1001389,45.2404075 33.0704207,45.2404075" id="Fill-5"></path>
            </g>
        </g>
    </g>
</svg>