<?xml version="1.0" encoding="UTF-8"?>
<svg width="128px" height="128px" viewBox="0 0 128 128" version="1.1" xmlns="http://www.w3.org/2000/svg" xmlns:xlink="http://www.w3.org/1999/xlink">
    <!-- Generator: Sketch 43.2 (39069) - http://www.bohemiancoding.com/sketch -->
    <title>Artboard</title>
    <desc>Created with Sketch.</desc>
    <defs></defs>
    <g id="Page-1" stroke="none" stroke-width="1" fill="none" fill-rule="evenodd">
        <g id="Artboard" stroke="#828282" stroke-width="0.25" fill="#fff" fill-rule="nonzero">
            <g id="continue-shopping" transform="translate(10.000000, 0.000000)">
                <path d="M108.467016,110.539821 L100.706181,28.2813146 C100.539516,26.4544204 98.9043974,25.071042 96.9920813,25.071042 L81.0248154,25.071042 C80.802711,11.3487898 68.8839136,0.26089172 54.2471949,0.26089172 C39.6115159,0.26089172 27.6927185,11.3487898 27.470614,25.071042 L11.5033478,25.071042 C9.56400512,25.071042 7.95591334,26.4544204 7.78924838,28.2813146 L0.0270267516,110.539821 C0.0270267516,110.644179 0,110.748861 0,110.853218 C0,120.218904 9.11979616,127.836616 20.3459465,127.836616 L88.1480966,127.836616 C99.3756333,127.836616 108.495429,120.218904 108.495429,110.853218 C108.495429,110.748861 108.495429,110.644179 108.467016,110.539821 Z M54.2471949,7.30562035 C64.7529786,7.30562035 73.3194189,15.2367286 73.5397914,25.071042 L34.9542522,25.071042 C35.1763567,15.2367286 43.741065,7.30562035 54.2471949,7.30562035 Z M88.1480966,120.793519 L20.3459465,120.793519 C13.3047847,120.793519 7.59590317,116.409885 7.48502419,111.010079 L14.9128764,32.1425121 L27.4422013,32.1425121 L27.4422013,42.8380943 C27.4422013,44.7947821 29.1057325,46.3601325 31.1847133,46.3601325 C33.2636943,46.3601325 34.9272255,44.7947821 34.9272255,42.8380943 L34.9272255,32.1425121 L73.5397914,32.1425121 L73.5397914,42.8380943 C73.5397914,44.7947821 75.2033222,46.3601325 77.2823034,46.3601325 C79.3612838,46.3601325 81.0248154,44.7947821 81.0248154,42.8380943 L81.0248154,32.1425121 L93.5541402,32.1425121 L101.010751,111.010079 C100.899526,116.409885 95.1622317,120.793519 88.1480966,120.793519 Z" id="Fill-1"></path>
            </g>
        </g>
    </g>
</svg>