<?xml version="1.0" encoding="UTF-8"?>
<svg width="19px" height="19px" viewBox="0 0 19 19" version="1.1" xmlns="http://www.w3.org/2000/svg" xmlns:xlink="http://www.w3.org/1999/xlink">
    <!-- Generator: Sketch 42 (36781) - http://www.bohemiancoding.com/sketch -->
    <title>gps-fixed-indicator</title>
    <desc>Created with Sketch.</desc>
    <defs></defs>
    <g id="Page-1" stroke="none" stroke-width="1" fill="#515151" fill-rule="evenodd">
        <g id="Artboard" transform="translate(-887.000000, -341.000000)" fill="e2e2e2">
            <g id="Location" transform="translate(190.000000, 310.000000)">
                <path d="M706.264211,37.3684211 C704.409474,37.3684211 702.896842,38.8810526 702.896842,40.7357895 C702.896842,42.5863158 704.409474,44.1031579 706.264211,44.1031579 C708.114737,44.1031579 709.631579,42.5863158 709.631579,40.7357895 C709.631579,38.8810526 708.114737,37.3684211 706.264211,37.3684211 Z M713.76,39.8926316 C713.336842,36.3568421 710.556842,33.5768421 707.107368,33.24 L707.107368,31.4715789 L705.421053,31.4715789 L705.421053,33.24 C701.885263,33.5768421 699.105263,36.3568421 698.768421,39.8926316 L697,39.8926316 L697,41.5789474 L698.768421,41.5789474 C699.187368,45.1147368 701.967368,47.8947368 705.421053,48.2315789 L705.421053,50 L707.107368,50 L707.107368,48.2315789 C710.643158,47.8084211 713.423158,45.0284211 713.76,41.5789474 L715.528421,41.5789474 L715.528421,39.8926316 L713.76,39.8926316 Z M706.264211,46.6273684 C702.978947,46.6273684 700.367368,44.0210526 700.367368,40.7357895 C700.367368,37.4505263 702.978947,34.8389474 706.264211,34.8389474 C709.549474,34.8389474 712.155789,37.4505263 712.155789,40.7357895 C712.155789,44.0210526 709.549474,46.6273684 706.264211,46.6273684 Z" id="gps-fixed-indicator"></path>
            </g>
        </g>
    </g>
</svg>
