<?xml version="1.0" encoding="UTF-8"?>
<svg width="177px" height="125px" viewBox="0 0 177 125" version="1.1" xmlns="http://www.w3.org/2000/svg" xmlns:xlink="http://www.w3.org/1999/xlink">
    <!-- Generator: Sketch 43.2 (39069) - http://www.bohemiancoding.com/sketch -->
    <title>Group</title>
    <desc>Created with Sketch.</desc>
    <defs></defs>
    <g id="Page-1" stroke="none" stroke-width="1" fill="none" fill-rule="evenodd">
        <g id="Cart" transform="translate(-92.000000, -269.000000)">
            <g id="Group" transform="translate(80.000000, 261.000000)">
                <g id="BG-bar" fill="#F2F2F2">
                    <path d="M183.168725,60.0707757 L130.943383,60.0707757 C126.731176,60.0707757 123.318234,55.8289315 123.318234,50.5964919 C123.318234,45.3653 126.731176,41.1234558 130.943383,41.1234558 L159.932806,41.1234558 C164.143005,41.1234558 167.556951,36.8816116 167.556951,31.6491721 C167.556951,26.4179801 164.143005,22.1761359 159.932806,22.1761359 L46.9613134,22.1761359 C42.7501105,22.1761359 39.3361644,26.4179801 39.3361644,31.6491721 C39.3361644,36.8816116 42.7501105,41.1234558 46.9613134,41.1234558 L79.5926134,41.1234558 C83.8038163,41.1234558 87.2177624,45.3653 87.2177624,50.5964919 C87.2177624,55.8289315 83.8038163,60.0707757 79.5926134,60.0707757 L16.9085468,60.0707757 C12.6973439,60.0707757 9.28339782,64.3126198 9.28339782,69.5450594 C9.28339782,74.777499 12.6973439,79.0180955 16.9085468,79.0180955 L53.2038142,79.0180955 C57.4150171,79.0180955 60.8279591,83.2599397 60.8279591,88.4923793 C60.8279591,93.7248188 57.4150171,97.966663 53.2038142,97.966663 L35.8820542,97.966663 C31.6708513,97.966663 28.2569052,102.20726 28.2569052,107.440947 C28.2569052,112.672139 31.6708513,116.913983 35.8820542,116.913983 L148.852543,116.913983 C153.063745,116.913983 156.477692,112.672139 156.477692,107.440947 C156.477692,102.20726 153.063745,97.966663 148.852543,97.966663 L104.554584,97.966663 C100.343381,97.966663 96.9294349,93.7248188 96.9294349,88.4923793 C96.9294349,83.2599397 100.343381,79.0180955 104.554584,79.0180955 L183.168725,79.0180955 C187.379928,79.0180955 190.79287,74.777499 190.79287,69.5450594 C190.79287,64.3126198 187.379928,60.0707757 183.168725,60.0707757 Z" id="Fill-1" transform="translate(100.038134, 69.545059) rotate(-15.000000) translate(-100.038134, -69.545059) "></path>
                </g>
                <g id="cart-(2)" transform="translate(40.000000, 11.000000)">
                    <path d="M100.112109,65.8455469 C100.112109,68.2434375 98.1672656,70.1885156 95.7670313,70.1885156 C93.3691406,70.1885156 91.4240625,68.2434375 91.4240625,65.8455469 L91.4240625,41.5167187 C91.4240625,39.1188281 93.3691406,37.1739844 95.7670313,37.1739844 C96.9682031,37.1739844 98.0526563,37.6600781 98.8392188,38.4466406 C99.6257813,39.2308594 100.112109,40.3178906 100.112109,41.5167187 L100.112109,65.8455469 Z M73.9026562,65.8455469 C73.9026562,68.2434375 71.9575781,70.1885156 69.5573438,70.1885156 C67.1571094,70.1885156 65.2122656,68.2434375 65.2122656,65.8455469 L65.2122656,41.5167187 C65.2122656,39.1188281 67.1571094,37.1739844 69.5573438,37.1739844 C70.75875,37.1739844 71.8432031,37.6600781 72.6297656,38.4466406 C73.4163281,39.2308594 73.9026562,40.3178906 73.9026562,41.5167187 L73.9026562,65.8455469 Z M47.6908594,65.8455469 C47.6908594,68.2434375 45.7457813,70.1885156 43.3478906,70.1885156 C40.9476563,70.1885156 39.0028125,68.2434375 39.0028125,65.8455469 L39.0028125,41.5167187 C39.0028125,39.1188281 40.9476563,37.1739844 43.3478906,37.1739844 C44.5469531,37.1739844 45.6314063,37.6600781 46.4179688,38.4466406 C47.2045313,39.2308594 47.6908594,40.3178906 47.6908594,41.5167187 L47.6908594,65.8455469 Z M20.9020313,22.8464063 L27.3923438,71.5589063 C27.9621094,75.8374219 31.6113281,79.0314844 35.9254688,79.0314844 L103.189219,79.0314844 C107.503594,79.0314844 111.152812,75.8374219 111.722344,71.5589063 L118.212891,22.8464063 L20.9020313,22.8464063 L20.9020313,22.8464063 Z" id="Fill-1" fill="#CCCCCC"></path>
                    <path d="M108.944766,99.885 C113.423203,99.885 117.053672,103.515469 117.053672,107.993906 C117.053672,112.472344 113.423203,116.102813 108.944766,116.102813 C104.466562,116.102813 100.836094,112.472344 100.836094,107.993906 C100.836094,103.515469 104.466562,99.885 108.944766,99.885" id="Fill-4" fill="#E6E6E1"></path>
                    <g id="Group-8">
                        <path d="M31.1648437,99.885 C35.6432813,99.885 39.27375,103.515469 39.27375,107.993906 C39.27375,112.472344 35.6432813,116.102813 31.1648437,116.102813 C26.6864063,116.102813 23.0559375,112.472344 23.0559375,107.993906 C23.0559375,103.515469 26.6864063,99.885 31.1648437,99.885" id="Fill-5" fill="#E6E6E1"></path>
                        <path d="M115.266328,107.993906 C115.266328,111.479531 112.430625,114.315234 108.944766,114.315234 C105.459141,114.315234 102.623437,111.479531 102.623437,107.993906 C102.623437,104.508281 105.459141,101.672578 108.944766,101.672578 C112.430625,101.672578 115.266328,104.508281 115.266328,107.993906 Z M37.4871094,107.993906 C37.4871094,111.479531 34.6514063,114.315234 31.1655469,114.315234 C27.6799219,114.315234 24.8442187,111.479531 24.8442187,107.993906 C24.8442187,104.508281 27.6799219,101.672578 31.1655469,101.672578 C34.6514063,101.672578 37.4871094,104.508281 37.4871094,107.993906 Z M119.557266,21.6696094 C119.217891,21.2819531 118.727812,21.0595312 118.212422,21.0595312 L22.4676563,21.0595312 L20.6252344,7.23257812 C20.0915625,3.22757813 16.6422656,0.207421875 12.6021094,0.207421875 L1.78757812,0.207421875 C0.80015625,0.207421875 0,1.0078125 0,1.995 C0,2.98242187 0.80015625,3.7828125 1.78757812,3.7828125 L12.6021094,3.7828125 C14.8577344,3.7828125 16.7833594,5.46890625 17.08125,7.70484375 L29.1515625,98.3036719 C24.6569531,99.2364844 21.2688281,103.226719 21.2688281,107.993906 C21.2688281,113.451094 25.7085937,117.890625 31.1655469,117.890625 C36.6227344,117.890625 41.0622656,113.451094 41.0622656,107.993906 C41.0622656,105.592266 40.201875,103.388203 38.7735937,101.672578 L101.33625,101.672578 C99.9084375,103.388438 99.0475781,105.592266 99.0475781,107.993906 C99.0475781,113.451094 103.487344,117.890625 108.944297,117.890625 C114.401484,117.890625 118.841016,113.451094 118.841016,107.993906 C118.841016,102.536719 114.401484,98.0971875 108.944297,98.0971875 L32.7309375,98.0971875 L30.1982813,79.0886719 C31.8515625,80.1850781 33.8266406,80.8202344 35.9259375,80.8202344 L49.6975781,80.8202344 C50.685,80.8202344 51.4851563,80.0198438 51.4851563,79.0326563 C51.4851563,78.0452344 50.685,77.2448437 49.6975781,77.2448437 L35.9259375,77.2448437 C32.5211719,77.2448437 29.6142187,74.7002344 29.1642187,71.3254687 L23.8532813,31.4636719 L91.6478906,31.4636719 C92.6355469,31.4636719 93.4357031,30.6632813 93.4357031,29.6758594 C93.4357031,28.6886719 92.6355469,27.8882813 91.6478906,27.8882813 L23.3772656,27.8882813 L22.9441406,24.6351563 L116.170781,24.6351563 L115.737422,27.8882813 L97.6073437,27.8882813 C96.6196875,27.8882813 95.8195312,28.6886719 95.8195312,29.6758594 C95.8195312,30.6632813 96.6196875,31.4636719 97.6073437,31.4636719 L115.261172,31.4636719 L109.950703,71.3240625 C109.501172,74.6995312 106.593984,77.2448437 103.188516,77.2448437 L55.6565625,77.2448437 C54.6691406,77.2448437 53.8689844,78.0452344 53.8689844,79.0326563 C53.8689844,80.0198438 54.6691406,80.8202344 55.6565625,80.8202344 L103.188281,80.8202344 C108.378516,80.8202344 112.809375,76.9408594 113.494688,71.7960937 L118.970156,30.6970313 C119.171953,30.4075781 119.291484,30.0560156 119.291484,29.6758594 C119.291484,29.4651563 119.253047,29.2638281 119.186016,29.0760938 L119.984297,23.0835938 C120.0525,22.5726562 119.896875,22.0575 119.557266,21.6696094 L119.557266,21.6696094 Z" id="Fill-7" fill="#515151"></path>
                    </g>
                    <path d="M39.0030469,55.029375 C38.0153906,55.029375 37.2152344,55.8297656 37.2152344,56.8169531 L37.2152344,65.8448437 C37.2152344,69.2259375 39.9660937,71.9767969 43.3474219,71.9767969 C46.72875,71.9767969 49.479375,69.2259375 49.479375,65.8448437 L49.479375,41.5171875 C49.479375,38.1360938 46.72875,35.3852344 43.3474219,35.3852344 C39.9660937,35.3852344 37.2152344,38.1360938 37.2152344,41.5171875 L37.2152344,50.8579687 C37.2152344,51.8453906 38.0153906,52.6457813 39.0030469,52.6457813 C39.9904687,52.6457813 40.790625,51.8453906 40.790625,50.8579687 L40.790625,41.5171875 C40.790625,40.1076563 41.9376562,38.960625 43.3474219,38.960625 C44.7571875,38.960625 45.9039844,40.1076563 45.9039844,41.5171875 L45.9039844,65.8446094 C45.9039844,67.254375 44.7571875,68.4011719 43.3474219,68.4011719 C41.9376562,68.4011719 40.790625,67.254375 40.790625,65.8446094 L40.790625,56.8167188 C40.790625,55.8297656 39.9902344,55.029375 39.0030469,55.029375" id="Fill-9" fill="#515151"></path>
                    <path d="M93.2107031,65.8446094 L93.2107031,41.5171875 C93.2107031,40.1076563 94.3577344,38.960625 95.7675,38.960625 C97.1772656,38.960625 98.3242969,40.1076563 98.3242969,41.5171875 L98.3242969,65.8446094 C98.3242969,67.254375 97.1772656,68.4011719 95.7675,68.4011719 C94.3575,68.4011719 93.2107031,67.2546094 93.2107031,65.8446094 Z M101.899219,65.8446094 L101.899219,41.5171875 C101.899219,38.1360938 99.1483594,35.3852344 95.7672656,35.3852344 C92.3859375,35.3852344 89.6353125,38.1360938 89.6353125,41.5171875 L89.6353125,65.8446094 C89.6353125,69.2257031 92.3859375,71.9765625 95.7672656,71.9765625 C99.1483594,71.9765625 101.899219,69.2259375 101.899219,65.8446094 L101.899219,65.8446094 Z" id="Fill-10" fill="#515151"></path>
                    <path d="M67.0007813,65.8446094 L67.0007813,41.5171875 C67.0007813,40.1076563 68.1478125,38.960625 69.5573438,38.960625 C70.9671094,38.960625 72.1141406,40.1076563 72.1141406,41.5171875 L72.1141406,65.8446094 C72.1141406,67.254375 70.9671094,68.4011719 69.5573438,68.4011719 C68.1478125,68.4011719 67.0007813,67.2546094 67.0007813,65.8446094 Z M75.6890625,65.8446094 L75.6890625,41.5171875 C75.6890625,38.1360938 72.9384375,35.3852344 69.5571094,35.3852344 C66.1757812,35.3852344 63.4253906,38.1360938 63.4253906,41.5171875 L63.4253906,65.8446094 C63.4253906,69.2257031 66.1757812,71.9765625 69.5571094,71.9765625 C72.9384375,71.9765625 75.6890625,69.2259375 75.6890625,65.8446094 L75.6890625,65.8446094 Z" id="Fill-11" fill="#515151"></path>
                </g>
            </g>
        </g>
    </g>
</svg>