<?xml version="1.0" encoding="UTF-8"?>
<svg width="60px" height="60px" viewBox="0 0 60 60" version="1.1" xmlns="http://www.w3.org/2000/svg" xmlns:xlink="http://www.w3.org/1999/xlink">
    <!-- Generator: Sketch 42 (36781) - http://www.bohemiancoding.com/sketch -->
    <title>placeholder (6)</title>
    <desc>Created with Sketch.</desc>
    <defs></defs>
    <g id="Page-1" stroke="none" stroke-width="1" fill="none" fill-rule="evenodd">
        <g id="Location-Pop-Up-(-Delivery)" transform="translate(-653.000000, -350.000000)">
            <g id="placeholder-(6)" transform="translate(653.000000, 350.000000)">
                <polygon id="Fill-1" fill="#828282" points="49.0187234 38.5506383 40.4068085 38.5506383 29.7957447 53.8697872 19.1885106 38.5506383 10.212766 38.5506383 0 59.9987234 59.2314894 59.9987234"></polygon>
                <path d="M42.9255319,6.20170213 C35.6744681,-1.04425532 23.9208511,-1.04425532 16.6710638,6.20170213 C10.1374468,12.7340426 9.40468085,25.0365957 14.9451064,32.4268085 L29.7957447,53.8697872 L44.646383,32.4268085 C50.1906383,25.0365957 49.4578723,12.7340426 42.9255319,6.20170213 Z M29.9795745,25.2765957 C26.5940426,25.2765957 23.8519149,22.5331915 23.8519149,19.1476596 C23.8519149,15.7659574 26.5940426,13.0187234 29.9795745,13.0187234 C33.3612766,13.0187234 36.1034043,15.7659574 36.1034043,19.1476596 C36.1034043,22.5331915 33.3612766,25.2765957 29.9795745,25.2765957 Z" id="Fill-3" fill="#BBBBBB"></path>
            </g>
        </g>
    </g>
</svg>