<?xml version="1.0" encoding="UTF-8"?>
<svg width="128px" height="128px" viewBox="0 0 128 128" version="1.1" xmlns="http://www.w3.org/2000/svg" xmlns:xlink="http://www.w3.org/1999/xlink">
    <!-- Generator: Sketch 43.2 (39069) - http://www.bohemiancoding.com/sketch -->
    <title>account-settings</title>
    <desc>Created with Sketch.</desc>
    <defs></defs>
    <g id="Page-1" stroke="none" stroke-width="1" fill="none" fill-rule="evenodd">
        <g id="Artboard" fill-rule="nonzero" fill="#828282">
            <g id="account-settings">
                <path d="M104.95475,101.639 C99.7957498,91.4722502 91.0742502,83.6962502 80.6557498,79.6429997 C88.242,74.36 93.2175002,65.5769997 93.2175002,55.65225 C93.2175002,39.54175 80.1104998,26.43475 64,26.43475 C47.8895,26.43475 34.7825,39.54175 34.7825,55.65225 C34.7825,65.5775002 39.7585,74.3609997 47.3455,79.6437498 C36.9285,83.698 28.20875,91.4757498 23.0505,101.6445 C13.9275,91.7287501 8.34775002,78.5042502 8.34775002,64 C8.34775002,33.3135 33.3135,8.34775002 64,8.34775002 C94.6864998,8.34775002 119.65225,33.3135 119.65225,64 C119.65225,78.5017498 114.07475,91.7237498 104.95475,101.639 Z M43.1305,55.65225 C43.1305,44.14475 52.4925,34.7825 64,34.7825 C75.5075002,34.7825 84.8695002,44.14475 84.8695002,55.65225 C84.8695002,67.1597498 75.5075002,76.5217498 64,76.5217498 C52.4925,76.5217498 43.1305,67.1597498 43.1305,55.65225 Z M29.47275,107.615 C35.35175,93.9012499 48.888,84.8695002 64,84.8695002 C79.1144998,84.8695002 92.6532499,93.8995002 98.5329997,107.61025 C89.0372499,115.14525 77.0357498,119.65225 64,119.65225 C50.967,119.65225 38.96775,115.14725 29.47275,107.615 Z M64,0 C28.7105,0 0,28.7105 0,64 C0,99.2867501 28.7205,128 64,128 C99.3492499,128 128,99.2144998 128,64 C128,28.7105 99.2895002,0 64,0 L64,0 Z" id="Fill-1"></path>
            </g>
        </g>
    </g>
</svg>