<?xml version="1.0" encoding="UTF-8"?>
<svg width="128px" height="128px" viewBox="0 0 128 128" version="1.1" xmlns="http://www.w3.org/2000/svg" xmlns:xlink="http://www.w3.org/1999/xlink">
    <!-- Generator: Sketch 43.2 (39069) - http://www.bohemiancoding.com/sketch -->
    <title>Artboard</title>
    <desc>Created with Sketch.</desc>
    <defs></defs>
    <g id="Page-1" stroke="none" stroke-width="1" fill="none" fill-rule="evenodd">
        <g id="Artboard" fill-rule="nonzero" fill="#828282">
            <g id="order-history" transform="translate(3.000000, 1.000000)">
                <path d="M118.822629,0 L3.22660757,0 C1.45167097,0 0,1.45167098 0,3.22660756 C0,4.99986399 1.45167097,6.45153494 3.22660757,6.45153494 L10.1885796,6.45153494 L10.1885796,122.693416 C10.1885796,123.876259 10.8330946,124.97879 11.8818597,125.543329 C12.9306248,126.107531 14.1934441,126.053765 15.1884436,125.381696 L29.1943802,116.052693 L43.2540824,125.407906 C44.3304024,126.133742 45.7545185,126.133742 46.8294943,125.407906 L60.8354309,116.080248 L74.8951334,125.435461 C75.9701087,126.161297 77.395569,126.161297 78.470881,125.435461 L92.4764817,116.106795 L106.536184,125.461672 C107.074512,125.810812 107.69248,126 108.310785,126 C108.821557,126 109.359549,125.864914 109.842768,125.623305 C110.891533,125.058766 111.537392,123.956236 111.537392,122.773392 L111.483626,6.53285539 L118.822629,6.53285539 C120.595886,6.53285539 122.047557,5.08118444 122.047557,3.30658389 C122.047557,1.53198333 120.595886,0 118.822629,0 Z M105.112068,116.670998 L94.2776291,109.467417 C93.2023171,108.741581 91.7782012,108.741581 90.7032252,109.467417 L76.6959441,118.82263 L62.6362422,109.467417 C61.5612664,108.741581 60.1371503,108.741581 59.0621745,109.467417 L45.0548937,118.795075 L30.9951915,109.467417 C29.9202157,108.741581 28.4960996,108.741581 27.4211238,109.467417 L16.6404506,116.644787 L16.6404506,6.42532425 L105.084513,6.42532425 L105.112068,116.670998 Z" id="Fill-1" stroke="#828282" stroke-width="2"></path>
                <g id="Group" transform="translate(28.000000, 25.000000)">
                    <path d="M5.1535415,9.83114893 L58.8910542,9.83114893 C61.713719,9.83114893 64.0222976,7.67303654 64.0222976,5.032399 C64.0222976,2.39126144 61.713719,0.231148936 58.8910542,0.231148936 L5.1535415,0.231148936 C2.33087655,0.231148936 0.0222978752,2.39126144 0.0222978752,5.032399 C0.0222978752,7.67303654 2.28919388,9.83114893 5.1535415,9.83114893 Z" id="Fill-8"></path>
                    <path d="M5.1535415,61.0311489 L58.8910542,61.0311489 C61.713719,61.0311489 64.0222976,58.8730365 64.0222976,56.232399 C64.0222976,53.5912614 61.713719,51.4311489 58.8910542,51.4311489 L5.1535415,51.4311489 C2.33087655,51.4311489 0.0222978752,53.5912614 0.0222978752,56.232399 C0.0222978752,58.8730365 2.28919388,61.0311489 5.1535415,61.0311489 Z" id="Fill-8"></path>
                    <path d="M5.1535415,35.4311489 L58.8910542,35.4311489 C61.713719,35.4311489 64.0222976,33.2730365 64.0222976,30.632399 C64.0222976,27.9912614 61.713719,25.8311489 58.8910542,25.8311489 L5.1535415,25.8311489 C2.33087655,25.8311489 0.0222978752,27.9912614 0.0222978752,30.632399 C0.0222978752,33.2730365 2.28919388,35.4311489 5.1535415,35.4311489 Z" id="Fill-8"></path>
                </g>
            </g>
        </g>
    </g>
</svg>